<svg viewBox="0 0 1024 1024">
  <path d="M321.8432 252.8256a25.8304 25.8304 0 0 1 2.816 51.5584l-2.816 0.1536H245.632c-1.4848 0-2.816 1.024-3.2512 2.3808l-0.1792 1.0752V749.056c0 1.4848 1.024 2.816 2.3552 3.2768l1.0752 0.1792h534.5792a3.3792 3.3792 0 0 0 3.328-2.4832l0.128-0.9728V307.968c0-1.5616-0.9728-2.816-2.3552-3.2768l-1.1008-0.1792h-79.872a25.8304 25.8304 0 0 1-2.816-51.5584l2.816-0.1536h79.872c29.056 0 52.992 22.6304 55.04 51.2256l0.128 3.9424V749.056a54.272 54.272 0 0 1-16.128 38.9888c-9.1136 9.216-21.0944 14.848-34.0224 15.9488l-4.864 0.2304H245.6064a55.2448 55.2448 0 0 1-55.0144-51.2512l-0.128-3.9168V307.968c0-29.1072 22.656-52.992 51.2256-55.04l3.9168-0.128h76.2112z m68.4288-49.8688c13.3632 0 24.32 10.0608 25.7024 23.04l0.1536 2.816v110.72a25.8304 25.8304 0 1 1-51.5584 2.816l-0.1536-2.816V228.8128c0-14.3104 11.5712-25.856 25.856-25.856z m242.4832 0c13.3376 0 24.32 10.0608 25.7024 23.04l0.1536 2.816v110.72a25.8304 25.8304 0 1 1-51.5584 2.816l-0.1536-2.816V228.8128c0-14.3104 11.5456-25.856 25.856-25.856z m-66.6368 49.8688a25.8304 25.8304 0 0 1 2.816 51.5584l-2.816 0.1536h-98.816a25.8304 25.8304 0 0 1-2.8416-51.5584l2.816-0.1536h98.8416z" fill="#2B2B2D"></path>
  <path d="M384.8704 487.7824h-73.6768a20.7104 20.7104 0 1 1 0-41.472h73.6768a20.7104 20.7104 0 1 1 0 41.472z m162.176 0H473.344a20.7104 20.7104 0 1 1 0-41.472h73.7024a20.7104 20.7104 0 1 1 0 41.472z m162.304 0H635.648a20.7104 20.7104 0 1 1 0-41.472h73.6768a20.7104 20.7104 0 1 1 0 41.472z m-324.48 157.312h-73.6768a20.7104 20.7104 0 1 1 0-41.472h73.6768a20.7104 20.7104 0 1 1 0 41.472z m162.176 0H473.344a20.7104 20.7104 0 1 1 0-41.472h73.7024a20.7104 20.7104 0 1 1 0 41.472z m162.304 0H635.648a20.7104 20.7104 0 1 1 0-41.472h73.6768a20.7104 20.7104 0 1 1 0 41.472z" fill="#FFDA3F"></path>
</svg>