<svg viewBox="0 0 1024 1024">
  <path d="M716.8 716.8m-307.2 0a307.2 307.2 0 1 0 614.4 0 307.2 307.2 0 1 0-614.4 0Z" fill="#FFDA3F"></path>
  <path d="M508.7232 70.4l12.4928 0.2048a366.08 366.08 0 0 1 46.4384 727.296l-12.3392 1.792-7.7824 0.8192v69.3248h140.9536a38.0416 38.0416 0 0 1 26.112 9.984l3.9424 4.1472 3.2768 4.7616a38.0416 38.0416 0 0 1-22.1184 55.6544l-5.7856 1.28-5.376 0.3072H330.3936a38.0928 38.0928 0 0 1-11.2128-74.5472l5.7856-1.2288 5.376-0.3584h140.9536v-69.3248l-7.5776-0.8192A366.08 366.08 0 0 1 143.36 438.6816l0.1536-12.4928 0.512-12.288a366.1312 366.1312 0 0 1 339.712-342.6304l12.4928-0.6144 12.4928-0.256z m-110.592 98.7648a289.792 289.792 0 1 0 222.6688 535.1424 289.792 289.792 0 0 0-222.72-535.1424z m111.616 97.6896a167.936 167.936 0 1 1-9.5232 0.256l9.5232-0.256zM509.44 343.04l-7.5264 0.3584a91.8528 91.8528 0 1 0 15.0528 0l-7.5264-0.3584z" fill="#2B2B2D"></path>
</svg>