<svg viewBox="0 0 1024 1024">
  <path d="M768 256c24.064 0 47.616 1.8432 70.656 5.376A422.4 422.4 0 0 1 350.208 911.36 459.264 459.264 0 0 1 307.2 716.8a460.8 460.8 0 0 1 460.8-460.8z" fill="#FFDA3F"></path>
  <path d="M502.5792 55.5008a461.824 461.824 0 1 1 0 923.648 461.824 461.824 0 0 1 0-923.648z m0 78.848a382.976 382.976 0 1 0 0 765.952 382.976 382.976 0 0 0 0-765.952z m-6.0928 103.8336c19.968 0 36.4544 14.848 39.0656 34.0992l0.3584 5.3248v241.4592h227.5328c19.968 0 36.4544 14.848 39.0656 34.0992l0.3584 5.376a39.424 39.424 0 0 1-34.0992 39.0656l-5.3248 0.3584H496.4864a39.424 39.424 0 0 1-39.0656-34.0992l-0.3584-5.3248V277.6064a39.424 39.424 0 0 1 39.424-39.424z" fill="#2B2B2D"></path>
</svg>