<svg viewBox="0 0 1024 1024">
  <path d="M887.552 174.592a43.3664 43.3664 0 0 0-37.12-78.336l-208.384 102.5536a43.3664 43.3664 0 0 0-24.832 39.168v252.1088a199.8336 199.8336 0 0 0-114.2784-35.7888A201.216 201.216 0 0 0 301.9776 655.36a201.216 201.216 0 0 0 200.96 200.96A201.216 201.216 0 0 0 704 655.36V265.4208l183.6032-90.7776zM502.9376 769.6384A114.432 114.432 0 0 1 388.6592 655.36a114.432 114.432 0 0 1 114.2784-114.2784 114.432 114.432 0 0 1 114.2784 114.2784 114.432 114.432 0 0 1-114.2784 114.2784zM319.5904 479.488A32.512 32.512 0 1 0 293.7344 419.84a180.992 180.992 0 0 0-96.9728 100.1984 181.0432 181.0432 0 0 0 2.2528 139.4688 32.512 32.512 0 0 0 59.6992-25.856 116.48 116.48 0 0 1-1.536-89.7024c11.3664-28.9792 33.792-52.224 62.4128-64.512z m-105.4208-104.96a32.512 32.512 0 1 0-25.856-59.648 272.9472 272.9472 0 0 0-141.6192 358.6048 32.512 32.512 0 0 0 59.648-25.856 207.872 207.872 0 0 1 107.8272-273.1008z m618.2912 289.2288a32.512 32.512 0 1 0-61.44 21.2992 117.3504 117.3504 0 0 1-72.2944 149.1456 32.512 32.512 0 1 0 21.2992 61.44 182.4768 182.4768 0 0 0 112.4352-231.936z m148.5824 6.6048a32.512 32.512 0 0 0-61.44 21.2992 206.1824 206.1824 0 0 1-9.3696 158.6176 206.1824 206.1824 0 0 1-118.7328 105.5744 32.512 32.512 0 0 0 21.2992 61.44 270.7968 270.7968 0 0 0 155.9552-138.6496 270.848 270.848 0 0 0 12.288-208.2816z" fill="#2B2B2D"></path>
</svg>