<svg viewBox="0 0 1024 1024">
  <path d="M652.8 207.36a61.44 61.44 0 0 1 61.2864 57.2416l0.1536 4.1984v70.7328a23.04 23.04 0 0 1-45.9008 2.8928l-0.1792-2.8928V268.8a15.36 15.36 0 0 0-12.8768-15.1552L652.8 253.44h-332.8a15.36 15.36 0 0 0-15.1552 12.8768l-0.2048 2.4832v460.8a15.36 15.36 0 0 0 12.8768 15.1552l2.4832 0.2048h332.8a15.36 15.36 0 0 0 15.1552-12.8768l0.2048-2.4832v-70.656a23.04 23.04 0 0 1 45.9008-2.8928l0.1792 2.8928v70.656a61.44 61.44 0 0 1-57.2416 61.2864l-4.1984 0.1536h-332.8a61.44 61.44 0 0 1-61.2864-57.2416L258.56 729.6v-460.8a61.44 61.44 0 0 1 57.2416-61.2864L320 207.36h332.8z m111.9232 165.0176l2.176 1.92 108.6208 108.6208a23.04 23.04 0 0 1 1.8944 30.4128l-1.8944 2.1504-108.6208 108.6208a23.04 23.04 0 0 1-34.5088-30.4128l1.92-2.176L803.584 522.24H381.696a23.04 23.04 0 0 1-2.8672-45.9008l2.8672-0.1792h421.888l-69.2736-69.2736a23.04 23.04 0 0 1-1.92-30.4128l1.92-2.176a23.04 23.04 0 0 1 30.4128-1.92z" fill="#A0ACBD"></path>
</svg>