<svg viewBox="0 0 1024 1024">
  <path d="M716.8 716.8m-307.2 0a307.2 307.2 0 1 0 614.4 0 307.2 307.2 0 1 0-614.4 0Z" fill="#FFDA3F"></path>
  <path d="M832 442.88c20.48 0 37.12 16.64 37.12 37.12a357.1712 357.1712 0 0 1-312.5248 354.3552l-7.4752 0.768v39.7824h122.88c16.896 0 31.232 11.3152 35.6864 26.7776l1.0752 5.3248 0.3584 5.0176c0 18.7904-13.9776 34.304-32.1024 36.7616l-5.0176 0.3584h-320a37.12 37.12 0 0 1-5.0176-73.8816l5.0176-0.3584h122.8288v-39.7824l-7.424-0.768a357.1712 357.1712 0 0 1-311.6544-329.5744l-0.6656-12.4928-0.2048-12.288a37.12 37.12 0 0 1 74.24 0 282.88 282.88 0 0 0 565.76 0c0-20.48 16.64-37.12 37.12-37.12zM512 92.1088c122.88 0 223.232 96.768 228.864 218.3168l0.256 10.752v147.8656a229.12 229.12 0 0 1-457.984 10.752l-0.256-10.752V321.2288A229.12 229.12 0 0 1 512 92.1088z m0 74.24a154.88 154.88 0 0 0-154.624 145.7664l-0.256 9.1136V468.992a154.88 154.88 0 0 0 309.504 9.1136l0.256-9.1136V321.2288A154.88 154.88 0 0 0 512 166.3488z" fill="#2B2B2D"></path>
</svg>