<svg viewBox="0 0 1024 1024">
  <path d="M716.8 716.8m-307.2 0a307.2 307.2 0 1 0 614.4 0 307.2 307.2 0 1 0-614.4 0Z" fill="#FFDA3F"></path>
  <path d="M779.7248 101.0688a122.88 122.88 0 0 1 122.5728 114.4832l0.3072 8.3968v575.8976a122.88 122.88 0 0 1-114.4832 122.5728l-8.3968 0.3072H244.1216a122.88 122.88 0 0 1-122.624-114.4832l-0.256-8.3968V223.9488a122.88 122.88 0 0 1 114.4832-122.624l8.3968-0.256h535.552zM330.752 385.024l-54.0672 143.2064a36.5056 36.5056 0 0 1-27.4432 19.7632l-5.12 0.3584-50.0736 0.1024v251.5456c0 11.0592 3.6352 21.5552 10.3424 30.2592l4.4032 4.9664a49.4592 49.4592 0 0 0 28.7744 14.1824l6.656 0.4096h535.552a49.5616 49.5616 0 0 0 49.4592-43.264l0.4096-6.5536-0.0512-251.4944h-29.5424a36.4544 36.4544 0 0 1-21.4016-6.912l-4.352-3.7376-16.0768-16.0256-38.912 116.8896a36.4544 36.4544 0 0 1-26.624 24.064l-5.376 0.768a36.4544 36.4544 0 0 1-32.3584-15.36l-2.816-4.7104-78.8992-157.7472-85.0432 212.5824a36.4544 36.4544 0 0 1-28.4672 22.528l-5.632 0.4096-1.6384-0.0512a36.4544 36.4544 0 0 1-31.4368-21.5552l-1.7408-4.8128L330.8032 385.024z m448.9728-211.0464H244.224a49.8176 49.8176 0 0 0-35.3792 14.6944 49.7152 49.7152 0 0 0-14.2848 28.7744l-0.4096 6.5536-0.0512 251.5456 26.9824-0.1024 85.504-210.176a36.4544 36.4544 0 0 1 30.4128-20.0704l5.5808 0.1024a36.4544 36.4544 0 0 1 29.696 21.0432l1.9968 5.2224 85.8624 300.6464 75.6224-188.928a36.4544 36.4544 0 0 1 27.0336-22.272l5.2736-0.6144a36.4544 36.4544 0 0 1 31.4368 15.5136l2.7136 4.608 75.8272 151.6032 29.7472-89.2416c3.4304-10.24 11.2128-18.432 21.0944-22.3744l5.12-1.5872a36.4544 36.4544 0 0 1 30.1056 6.144l4.096 3.584 46.9504 46.9504h14.4896V224a49.9712 49.9712 0 0 0-10.24-30.4128l-4.3008-4.9664a49.9712 49.9712 0 0 0-35.328-14.6432z" fill="#2B2B2D"></path>
</svg>