<svg viewBox="0 0 1024 1024">
  <path d="M743.3728 213.8368c34.0736 0 61.952 27.8784 61.952 61.952l-1.3056 468.224c0 34.0992-27.904 61.9776-61.952 61.9776H290.048a62.1568 62.1568 0 0 1-61.9776-61.952l1.3312-468.224c0-34.0992 27.904-61.9776 61.952-61.9776z m17.2544 412.4672H271.4624v117.7344c0 9.2928 9.2928 18.5856 18.6112 18.5856h451.968c9.2928 0 18.5856-9.2928 18.5856-18.5856v-117.76z m-97.2032 38.8608c18.5856 0 30.976 9.7536 30.976 29.2864 0 16.2816-12.3904 32.5632-30.976 32.5632-18.6112 0-30.976-13.0304-30.976-32.5632 0-16.2816 12.3648-29.2864 30.976-29.2864z m-128.8448 9.5488c13.568 0 23.7568 9.3184 23.7568 21.7088s-10.1888 21.6832-23.7568 21.6832h-194.6368c-13.568 0-23.7824-9.2928-23.7824-21.6832s10.1888-21.7088 23.7824-21.7088h194.6368z m208.7936-417.5104H291.3792c-9.2928 0-18.5856 9.2928-18.5856 18.5856l-1.3312 307.1232h489.1648l1.3312-307.1232c0-9.2928-9.2928-18.5856-18.5856-18.5856z m-281.6 51.9168a23.296 23.296 0 0 1 21.7088 15.5136l52.6592 148.7104L588.8 346.3168c3.0976-9.2928 12.416-12.3904 21.7088-12.3904s15.488 6.1952 18.5856 15.488l18.5856 61.952h61.952c9.2928 0 15.5136 6.1952 15.5136 15.488s-6.2208 18.6112-15.5136 18.6112h-68.1472c-9.2928 0-18.5856-6.2208-21.6832-18.6112l-12.3904-40.2688L557.824 504.32a23.296 23.296 0 0 1-21.6832 15.488 23.296 23.296 0 0 1-21.6832-15.488l-49.5872-142.5152-38.6816 136.9344a7.68 7.68 0 0 1-7.3984 5.5808h-80.9472c-9.2928 0-15.488-6.1952-15.488-15.488s6.1952-15.488 15.488-15.488h61.952l40.2944-145.6128c3.0976-9.3184 12.3904-15.5136 21.6832-18.6112z" fill="#11305A" fill-opacity=".4"></path>
</svg>