<svg viewBox="0 0 1024 1024">
  <path d="M762.5728 480.3328a41.5744 41.5744 0 0 1 58.7776 0l31.6416 31.616a41.5744 41.5744 0 0 1 0 58.7776l-203.52 203.52a28.16 28.16 0 0 1-15.4624 7.9104l-72.5248 11.6736a19.2 19.2 0 0 1-22.016-22.016l11.6736-72.5248a28.16 28.16 0 0 1 7.8848-15.4368z m54.0416-249.2416c15.2576 0 24.3968 9.1648 24.3968 24.3968 0 15.2576-12.1856 24.3968-24.3968 24.3968h-15.232v142.08a22.8608 22.8608 0 1 1-45.7472 0v-145.1264H244.6848V735.488h238.5152a24.3968 24.3968 0 1 1 0 48.7936H243.6864a44.7232 44.7232 0 0 1-44.7488-44.7232V279.8848h-15.232c-15.2576 0-24.3968-9.1392-24.3968-24.3968 0-15.232 12.1856-24.3968 24.3968-24.3968z m-92.1088 341.6064l-135.936 135.936-6.912 43.0336 43.008-6.912 135.936-135.936-36.096-36.096z m-193.536-34.3296c13.7216 0 24.0128 12.1856 24.0128 24.3968 0 15.232-10.2912 24.3968-24.0384 24.3968h-202.1632c-13.7216 0-24.0384-12.2112-24.0384-24.3968 0-15.2576 10.3168-24.3968 24.064-24.3968z m263.2192-30.8736a3.1744 3.1744 0 0 0-4.4544 0L751.616 545.536l36.096 36.096 38.0928-38.0416a3.1488 3.1488 0 0 0 0.896-2.7392l-0.3072-0.9216-0.5888-0.8192z m-151.3984-89.5232c13.7216 0 24.0128 6.1184 24.0128 21.3504 0 15.2576-10.2912 24.3968-24.0128 24.3968H328.7552c-13.7216 0-24.0128-12.1856-24.0128-24.3968 0-12.1856 10.2912-21.3504 24.0128-21.3504z" fill="#A0ACBD"></path>
</svg>